<svg xmlns="http://www.w3.org/2000/svg" width="32" height="32" class="uil-default" preserveAspectRatio="xMidYMid" viewBox="0 0 100 100"><path fill="none" d="M0 0h100v100H0z" class="bk"/><rect width="5" height="15" x="47.5" y="42.5" fill="#727b7f" rx="4" ry="4" transform="translate(0 -22)"><animate attributeName="opacity" begin="0s" dur="1s" from="1" repeatCount="indefinite" to="0"/></rect><rect width="5" height="15" x="47.5" y="42.5" fill="#727b7f" rx="4" ry="4" transform="rotate(30 91.05 61)"><animate attributeName="opacity" begin="0.08333333333333333s" dur="1s" from="1" repeatCount="indefinite" to="0"/></rect><rect width="5" height="15" x="47.5" y="42.5" fill="#727b7f" rx="4" ry="4" transform="rotate(60 69.05 61)"><animate attributeName="opacity" begin="0.16666666666666666s" dur="1s" from="1" repeatCount="indefinite" to="0"/></rect><rect width="5" height="15" x="47.5" y="42.5" fill="#727b7f" rx="4" ry="4" transform="rotate(90 61 61)"><animate attributeName="opacity" begin="0.25s" dur="1s" from="1" repeatCount="indefinite" to="0"/></rect><rect width="5" height="15" x="47.5" y="42.5" fill="#727b7f" rx="4" ry="4" transform="rotate(120 56.35 61)"><animate attributeName="opacity" begin="0.3333333333333333s" dur="1s" from="1" repeatCount="indefinite" to="0"/></rect><rect width="5" height="15" x="47.5" y="42.5" fill="#727b7f" rx="4" ry="4" transform="rotate(150 52.95 61)"><animate attributeName="opacity" begin="0.4166666666666667s" dur="1s" from="1" repeatCount="indefinite" to="0"/></rect><rect width="5" height="15" x="47.5" y="42.5" fill="#727b7f" rx="4" ry="4" transform="rotate(180 50 61)"><animate attributeName="opacity" begin="0.5s" dur="1s" from="1" repeatCount="indefinite" to="0"/></rect><rect width="5" height="15" x="47.5" y="42.5" fill="#727b7f" rx="4" ry="4" transform="rotate(-150 47.05 61)"><animate attributeName="opacity" begin="0.5833333333333334s" dur="1s" from="1" repeatCount="indefinite" to="0"/></rect><rect width="5" height="15" x="47.5" y="42.5" fill="#727b7f" rx="4" ry="4" transform="rotate(-120 43.65 61)"><animate attributeName="opacity" begin="0.6666666666666666s" dur="1s" from="1" repeatCount="indefinite" to="0"/></rect><rect width="5" height="15" x="47.5" y="42.5" fill="#727b7f" rx="4" ry="4" transform="rotate(-90 39 61)"><animate attributeName="opacity" begin="0.75s" dur="1s" from="1" repeatCount="indefinite" to="0"/></rect><rect width="5" height="15" x="47.5" y="42.5" fill="#727b7f" rx="4" ry="4" transform="rotate(-60 30.95 61)"><animate attributeName="opacity" begin="0.8333333333333334s" dur="1s" from="1" repeatCount="indefinite" to="0"/></rect><rect width="5" height="15" x="47.5" y="42.5" fill="#727b7f" rx="4" ry="4" transform="rotate(-30 8.95 61)"><animate attributeName="opacity" begin="0.9166666666666666s" dur="1s" from="1" repeatCount="indefinite" to="0"/></rect></svg>