<svg xmlns="http://www.w3.org/2000/svg" width="20" height="20"><path fill="#a2acb3" d="M2.81 14.58c.09-.73.44-1.4 1.07-2.03l6.14-6.15c1.26-1.23 2.39-1.41 3.39-.53.9.92.52 1.88-.75 3.2L6.98 14.7l-.87-.97 5.6-5.61c.03 0 .42-.4.49-.5.21-.26.35-.43.14-.68-.25-.27-.63 0-1.22.58l-6.11 6.11c-.4.38-.62.74-.66 1.1-.04.42.15.84.56 1.26.44.35.81.5 1.12.45.3-.05.68-.3 1.14-.74a393.18 393.18 0 0 0 6.62-6.58c.02-.02.52-.48 1.03-1.16.37-.48.69-.94.75-1.22.15-.7 0-1.27-.53-1.98a2.67 2.67 0 0 0-1.85-1.19c-.73-.08-1.55.3-2.44 1.16l-6.71 6.71-1.1-1.07 6.7-6.74a4.97 4.97 0 0 1 3.2-1.61c1.1-.05 2.1.4 3.05 1.33 1.12 1.15 1.52 2.42 1.19 3.8-.21.79-.71 1.6-1.5 2.4-.93.9-2.24 2.21-3.96 3.93l-3.35 3.35A3.51 3.51 0 0 1 5.86 18c-.74 0-1.4-.3-2.01-.9a3.16 3.16 0 0 1-1.04-2.52"/></svg>