<svg xmlns="http://www.w3.org/2000/svg" width="28" height="64"><g stroke-miterlimit="10" stroke-width=".25"><path fill="#A2ACB3" stroke="#A2ACB3" d="m16.672 5.608-1.715 1.715-4.771 4.77c-.02.02-.033.044-.052.065l-.007-.006-2.183 2.183a2.98 2.98 0 0 0 0 4.208 2.981 2.981 0 0 0 4.208 0l8.185-8.185.478-.479.011-.006a.602.602 0 0 0-.846-.854v-.001l-.492.491-8.185 8.185a1.777 1.777 0 0 1-2.51 0c-.692-.692-.692-1.819.221-2.731L10.977 13l.058-.058 4.771-4.77 1.005-1.005.71-.71c.059-.059.127-.101.188-.154 1.347-1.168 3.387-1.126 4.667.154a3.439 3.439 0 0 1 0 4.855l-6.486 6.485-2.191 2.192-.152.151a4.897 4.897 0 0 1-6.916 0 4.895 4.895 0 0 1 0-6.916l8.295-8.295.479-.478.011-.006a.604.604 0 0 0 0-.851.604.604 0 0 0-.846-.003v-.002l-.491.491-8.296 8.296a6.097 6.097 0 0 0 0 8.613 6.095 6.095 0 0 0 8.612 0l2.344-2.344 6.486-6.485a4.637 4.637 0 0 0 .074-6.47c-.026-.027-.048-.056-.074-.082a4.64 4.64 0 0 0-6.553 0z"/><path fill="#36D0AE" stroke="#36D0AE" d="m16.672 42.836-1.715 1.715-4.771 4.77c-.02.021-.033.045-.052.065l-.007-.007-2.183 2.184c-1.16 1.16-1.16 3.047 0 4.207s3.048 1.16 4.208 0l8.185-8.185.478-.479.011-.006a.602.602 0 0 0-.845-.855l-.492.49-8.185 8.186a1.779 1.779 0 0 1-2.51 0c-.692-.692-.692-1.819.221-2.731l1.962-1.963.058-.059 4.771-4.771 1.005-1.004.71-.711c.059-.059.127-.101.188-.153 1.347-1.169 3.387-1.127 4.667.153a3.439 3.439 0 0 1 0 4.855l-6.486 6.485-2.191 2.192-.152.151a4.897 4.897 0 0 1-6.916 0 4.895 4.895 0 0 1 0-6.916l8.295-8.296.479-.478.011-.007a.604.604 0 0 0 0-.851.605.605 0 0 0-.846-.004v-.001l-.491.492-8.296 8.295a6.097 6.097 0 0 0 0 8.613 6.095 6.095 0 0 0 8.612 0l2.344-2.344 6.486-6.485a4.637 4.637 0 0 0 .074-6.47c-.026-.027-.048-.057-.074-.082a4.642 4.642 0 0 0-6.553.005z"/></g></svg>