<svg xmlns="http://www.w3.org/2000/svg" viewBox="0 0 20 20"><g fill="#a2acb3"><path d="M17.94 6.01s-.85-1.39-2.97-.9c-1.96.45-2.29 1.57-9.75 5.61-.1.07-.44.25-.44.25l-1.06.57-.36.2a2.5 2.5 0 0 0 2.41 4.4l1.43-.78a2.51 2.51 0 0 0 .7-3.82L17.94 6m-2.97-.9c-1.98.45-1.83 1.32-9.75 5.61m1.51 2.03c.19.34.1.73-.18.9l-1.88 1.01c-.28.16-.66.02-.84-.32-.19-.33-.1-.73.18-.88l.43-.24 1.45-.79c.28-.15.66 0 .84.32z"/><path d="m11.32 10.04-2.17 1.17c.36.2.68.4.98.59l-.3-.17c1.85 1.14 2.8 1.85 3.57 2.3.52.33.94.51 1.56.65 2.12.49 2.97-.9 2.97-.9l-6.61-3.64M8.47 8.47l-.58-.31a2.5 2.5 0 0 0-.7-3.82l-1.43-.78a2.5 2.5 0 0 0-2.41 4.4l.36.2 1.06.57a3654.25 3654.25 0 0 0 1.63.9l2.07-1.16m-4.04-2L4 6.24c-.28-.16-.37-.56-.18-.89.18-.33.56-.48.85-.32l1.87 1.02c.28.16.37.56.18.89-.18.33-.56.48-.84.32l-1.45-.79"/></g></svg>