<svg xmlns="http://www.w3.org/2000/svg" viewBox="0 0 20 40"><path fill="#c3cacf" d="M15.4 4.66H4.33a2.46 2.46 0 0 0-2.46 2.46v5.75c0 1.36 1.1 2.46 2.46 2.46H15.4c1.36 0 2.46-1.1 2.46-2.46V7.13c0-1.36-1.1-2.47-2.46-2.47m1.34 9.14-.25.25a.35.35 0 0 1-.5 0l-3.38-3.54-2.25 2.25-.25.25a.35.35 0 0 1-.25.1.35.35 0 0 1-.25-.1l-.25-.25-2.14-2.14-3.5 3.35a.35.35 0 0 1-.5 0l-.25-.26a.35.35 0 0 1 0-.5l3.5-3.34-3.12-3.12a.35.35 0 0 1 0-.5L3.6 6a.35.35 0 0 1 .5 0l5.76 5.76L15.63 6a.35.35 0 0 1 .5 0l.25.25c.14.14.14.36 0 .5l-3.01 3.01 3.38 3.54c.14.14.14.37 0 .5"/><path fill="#5b646a" d="M15.4 24.67H4.33a2.46 2.46 0 0 0-2.46 2.46v5.74c0 1.36 1.1 2.47 2.46 2.47H15.4c1.36 0 2.46-1.1 2.46-2.47v-5.74c0-1.36-1.1-2.46-2.46-2.46m1.34 9.14-.25.25a.35.35 0 0 1-.5 0l-3.38-3.54-2.25 2.25-.25.25a.35.35 0 0 1-.5 0l-.25-.25-2.14-2.14-3.5 3.34a.35.35 0 0 1-.5 0l-.25-.25a.35.35 0 0 1 0-.5l3.5-3.34-3.12-3.12a.35.35 0 0 1 0-.5L3.6 26a.35.35 0 0 1 .5 0l5.76 5.76L15.63 26a.35.35 0 0 1 .5 0l.25.25c.14.14.14.36 0 .5l-3.01 3 3.38 3.55c.14.14.14.36 0 .5"/></svg>