<svg xmlns="http://www.w3.org/2000/svg" viewBox="0 0 20 40"><path fill="#c3cacf" d="M15.96 7.37V2h-12v5.38A2.46 2.46 0 0 0 2 9.79v5.74C2 16.9 3.1 18 4.46 18h11.08C16.9 18 18 16.9 18 15.53V9.8c0-1.22-.88-2.22-2.04-2.42M4.96 3h10v1h-10V3m0 2h10v1h-10V5m0 2h10v1h-10V7m1.98 3-1-1h8.02l-1 1H6.94m5.02 1-1 1H8.94l-1-1h4.02m4.93 5.47-.25.25a.35.35 0 0 1-.5 0l-3.39-3.54-2.25 2.25-.25.25a.35.35 0 0 1-.25.1.35.35 0 0 1-.25-.1l-.25-.25-2.13-2.14-3.5 3.34a.35.35 0 0 1-.5 0l-.25-.25a.35.35 0 0 1 0-.5l3.5-3.34L3.48 9.4a.35.35 0 0 1 0-.5l.25-.25a.35.35 0 0 1 .5 0L10 14.42l5.76-5.76a.35.35 0 0 1 .5 0l.25.25c.14.14.14.37 0 .5l-3 3.01 3.38 3.55c.14.13.14.36 0 .5"/><path fill="#5b646a" d="M15.96 27.36V22h-12v5.38A2.46 2.46 0 0 0 2 29.78v5.74C2 36.88 3.1 38 4.46 38h11.08C16.9 38 18 36.9 18 35.53v-5.74c0-1.21-.88-2.22-2.04-2.42M4.96 23h10v1h-10v-1m0 2h10v1h-10v-1m0 2h10v1h-10v-1m1.98 3-1-1h8.02l-1 1H6.94m5.02 1-1 1H8.94l-1-1h4.02m4.93 5.47-.25.25a.35.35 0 0 1-.5 0l-3.39-3.54-2.25 2.25-.25.25a.35.35 0 0 1-.25.1.35.35 0 0 1-.25-.1l-.25-.25-2.13-2.14-3.5 3.34a.35.35 0 0 1-.5 0l-.25-.25a.35.35 0 0 1 0-.5l3.5-3.34-3.13-3.12a.35.35 0 0 1 0-.5l.25-.25a.35.35 0 0 1 .5 0L10 34.42l5.76-5.76a.35.35 0 0 1 .5 0l.25.25c.14.13.14.36 0 .5l-3 3 3.38 3.55c.14.14.14.36 0 .5"/></svg>