<svg xmlns="http://www.w3.org/2000/svg" width="20" height="20"><path fill="#a2acb3" d="M9.96 4a3.1 3.1 0 1 0-1.3 3.74c.07-.98.36-2.45 1.3-3.75m6.73 4.8s.25-2.64-1.4-4.56a2.77 2.77 0 0 0-1.6-.88 2.77 2.77 0 0 0-1.05 0c-.62.1-1.19.42-1.6.88-1.66 1.92-1.4 4.56-1.4 4.56S10.3 8.5 11 8.5c.17 0 .34.02.51.06.33.13.6.24.87.33l.22.05a2.54 2.54 0 0 0 1.37-.05c.27-.09.54-.2.88-.33h-.01c.17-.04.34-.06.51-.06.7 0 1.35.29 1.35.29m-9.26 8.64.36-2.87a6.45 6.45 0 0 1 2.05-4.03 4.51 4.51 0 0 0-2.7-.98 4.4 4.4 0 0 0-2.2.63 5.75 5.75 0 0 0-2.56 4.22L2 17.5c1.66.33 3.37.5 5.13.5h.24l.07-.57m7.71-6.65a4.07 4.07 0 0 0-1.99-.55 4 4 0 0 0-2.02.58 5.28 5.28 0 0 0-2.35 3.88l-.36 2.85a24.45 24.45 0 0 0 9.47 0l-.36-2.85a5.27 5.27 0 0 0-2.39-3.9"/></svg>