<svg xmlns="http://www.w3.org/2000/svg" width="20" height="20"><g fill="#a2acb3"><path d="M10 8.2A3.1 3.1 0 1 1 10 2a3.1 3.1 0 0 1 0 6.2"/><path d="M13.51 3.1c-.17 0-.34.03-.5.06a3.56 3.56 0 0 1-1.09 4.96 2.76 2.76 0 1 0 1.59-5M6.42 5.1c0-.71.2-1.37.56-1.92a2.76 2.76 0 1 0 1.03 4.9 3.58 3.58 0 0 1-1.6-2.98m8.91 9.23.26 2.08a29.2 29.2 0 0 0 2.45-.58l-.2-1.63c-.32-2.34-1.9-4.27-4.24-4.32-.26 0-.5.04-.74.09a6.38 6.38 0 0 1 2.47 4.36M7.27 9.99a4 4 0 0 0-.83-.1c-2.34.04-3.92 1.97-4.24 4.31L2 15.8c.84.23 1.7.44 2.56.6l.27-2.07A6.3 6.3 0 0 1 7.27 10"/><path d="M12.23 10.14a4.41 4.41 0 0 0-2.16-.6 4.4 4.4 0 0 0-2.2.63A5.75 5.75 0 0 0 5.3 14.4l-.39 3.1a26.64 26.64 0 0 0 10.3 0c-.1-.92-.24-2.06-.38-3.1a5.72 5.72 0 0 0-2.6-4.26"/></g></svg>