<svg xmlns="http://www.w3.org/2000/svg" viewBox="0 0 20 20"><path fill="#a2acb3" d="M15.657 4.343a7.999 7.999 0 0 0-11.314 0 8 8 0 1 0 11.314 0m.054 8.758-2.938-1.959a3.001 3.001 0 0 0 0-2.284L15.71 6.9a6.51 6.51 0 0 1 .001 6.201m-6.772-2.04a1.5 1.5 0 1 1 2.122-2.121 1.5 1.5 0 0 1-2.122 2.121M13.1 4.289l-1.958 2.938c-.73-.3-1.553-.3-2.283 0L6.9 4.289a6.512 6.512 0 0 1 6.2 0M4.29 6.9l2.938 1.958a3.001 3.001 0 0 0 0 2.284L4.29 13.101a6.508 6.508 0 0 1 0-6.201m2.609 8.811 1.958-2.938c.73.301 1.554.301 2.285 0l1.958 2.938a6.514 6.514 0 0 1-6.201 0"/></svg>