<svg xmlns="http://www.w3.org/2000/svg" width="20" height="20"><g fill="#a2acb3"><path d="M5.938 10.125C3.763 10.125 2 11.888 2 14.062S3.763 18 5.938 18s3.937-1.763 3.937-3.938-1.763-3.937-3.937-3.937m-.053 1.855c1.179 0 2.135.956 2.135 2.136s-.956 2.135-2.135 2.135-2.135-.955-2.135-2.135.956-2.136 2.135-2.136"/><path d="m14.522 3.882-7.548 7.551 1.855 1.856 7.55-7.552s.937-.682-.118-1.737c-.968-.968-1.739-.118-1.739-.118"/><path d="m14.2593 10.9396-3.09-3.0905 3.536-3.5355 3.09 3.0905z"/></g></svg>