<svg xmlns="http://www.w3.org/2000/svg" viewBox="0 0 20 20"><g fill="#a2acb3"><path d="m11.91 7.92-1.3 1.3.01.18c0 .4-.15.78-.43 1.06l-.28.27-.15.16-1.72 1.72-1.52 1.51a1.48 1.48 0 0 1-2.11 0l-.31-.31a1.49 1.49 0 0 1 0-2.11l3.66-3.66c.28-.29.66-.44 1.06-.44l.12.01 1.32-1.32a3.14 3.14 0 0 0-3.67.57l-3.67 3.66a3.13 3.13 0 0 0 0 4.46l.32.32a3.13 3.13 0 0 0 4.46 0l1.52-1.52 1.73-1.74.41-.4a3.14 3.14 0 0 0 .55-3.72"/><path d="m9.87 8.04.32.31c.14.15.25.32.33.5l1.22-1.22a3.24 3.24 0 0 0-.38-.45l-.31-.31a3.22 3.22 0 0 0-.5-.4L9.33 7.7c.2.07.4.18.55.34"/><path d="m17.09 5.02-.31-.31a3.14 3.14 0 0 0-4.46 0L10.8 6.23l-1.3 1.3-.85.84a3.13 3.13 0 0 0-.55 3.71l1.3-1.3v-.18c0-.4.15-.78.43-1.06l.69-.69.1-.1.07-.07 1.29-1.29 1.51-1.51a1.49 1.49 0 0 1 2.12 0l.3.31a1.49 1.49 0 0 1 0 2.11l-3.65 3.66c-.29.29-.66.44-1.06.44h-.12l-1.32 1.3a3.13 3.13 0 0 0 3.67-.57l3.66-3.66a3.13 3.13 0 0 0 0-4.46"/></g></svg>