<svg xmlns="http://www.w3.org/2000/svg" xml:space="preserve" viewBox="0 0 20 20"><g fill="#a2acb3"><path d="M2.959 11c-.553 0-1-.447-1-.999 0-.553.447-1 1-1h13.999c.552 0 1 .447 1 1 0 .552-.448 1-1 1L2.959 11z"/><path d="M2.252 10.708c-.391-.391-.391-1.024 0-1.414.39-.39 1.023-.391 1.414 0l3.898 3.898c.391.391.391 1.025 0 1.414-.39.391-1.023.391-1.414 0l-3.898-3.898z"/><path d="M3.666 10.708c-.391.391-1.024.391-1.414 0-.391-.39-.391-1.023 0-1.414L6.15 5.395c.391-.391 1.024-.39 1.415 0 .39.391.391 1.023 0 1.414l-3.899 3.899zM17.79 9.295c.391.391.391 1.024 0 1.414-.39.39-1.023.391-1.414 0l-3.898-3.898c-.391-.391-.391-1.025 0-1.414.39-.391 1.023-.391 1.414 0l3.898 3.898z"/><path d="M16.376 9.295c.391-.391 1.024-.391 1.414 0 .391.39.391 1.023 0 1.414l-3.898 3.899c-.391.391-1.024.39-1.414 0a.9989.9989 0 0 1 0-1.414l3.898-3.899z"/></g></svg>