<svg xmlns="http://www.w3.org/2000/svg" viewBox="0 0 20 20"><path fill="#a2acb3" d="M15.56 4.54H4.5A2.46 2.46 0 0 0 2.03 7v5.74c0 1.36 1.1 2.46 2.46 2.46h11.08c1.36 0 2.46-1.1 2.46-2.46V7c0-1.36-1.1-2.46-2.46-2.46m1.35 9.14-.25.25a.35.35 0 0 1-.5 0l-3.39-3.54-2.25 2.25-.25.25a.35.35 0 0 1-.25.1.35.35 0 0 1-.25-.1l-.25-.25L7.4 10.5l-3.5 3.34a.35.35 0 0 1-.5 0l-.24-.25a.35.35 0 0 1 0-.5l3.5-3.34-3.13-3.13a.35.35 0 0 1 0-.5l.25-.25a.35.35 0 0 1 .5 0l5.76 5.76 5.77-5.76a.35.35 0 0 1 .5 0l.25.25c.14.14.14.37 0 .5l-3.01 3.01 3.38 3.55c.14.13.14.36 0 .5"/></svg>