<svg xmlns="http://www.w3.org/2000/svg" xml:space="preserve" viewBox="0 0 20 20"><path fill="#a2acb3" d="M15 4H5L2 7l8 9 8-9-3-3zm-8 7.12-1.6-1.8.19.1c.48.24 3.6.4 4.2.4.59 0 4.14.2 3.04.99s-2.94.66-2.94.66c-.26-.96-1.74-1-2.42-.81-.26.07-.43.25-.47.46zm7.69-2.1c-.22-1.13-2.45-1.54-5.12-1.54-2.66 0-2.66-.78-2.64-1.02.03-.24.3-1.26 2.91-1.26 2.61 0 2.74 1.99 2.74 1.99h2.43V5.42l1.62 1.62-1.94 2.18v-.2zM12.16 5h1.68c-.02.03-.04.05-.04.09-.02.08-.16 1.1-.49.78-.2-.2-.4-.6-1.15-.87zM5.41 5h1.85l-.6.2c-1.23.37-1.85 1.83-2.04 2.69-.05.2-.04.4 0 .55l-1.25-1.4L5.41 5zm2.5 7.14c.06.02.11.06.18.08 1.4.48 3.93 0 3.93 0L10 14.49l-2.1-2.35z"/></svg>