<svg xmlns="http://www.w3.org/2000/svg" viewBox="0 0 20 40"><path fill="#c3cacf" d="M7.28 16.06a2.82 2.82 0 0 0 5.35 0H7.28zm7.03-9.14c-.16-1.1-.05-.27-.12-1.42-.15-2.33-1.9-3.49-4.23-3.49s-4.08 1.16-4.23 3.5c-.08 1.14.03.31-.13 1.4-.4 2.78-2.97 4.3-2.97 7.3 0 .28.01.57.05.85h14.56c.03-.28.05-.57.05-.86 0-2.98-2.58-4.5-2.98-7.28"/><path fill="#5b646a" d="M7.28 36.05a2.82 2.82 0 0 0 5.35 0H7.28m7.03-9.15c-.16-1.09-.05-.26-.12-1.4-.15-2.34-1.9-3.5-4.23-3.5s-4.09 1.16-4.23 3.5c-.08 1.14.03.31-.13 1.4-.4 2.78-2.97 4.3-2.97 7.3 0 .28.01.57.05.85h14.56c.03-.28.05-.57.05-.86 0-2.98-2.58-4.5-2.98-7.28"/></svg>