<svg xmlns="http://www.w3.org/2000/svg" xml:space="preserve" width="28" height="64"><path fill="#A2ACB3" d="M26.25 19.41h-24a.75.75 0 0 1-.75-.75V5.41c0-.42.34-.75.75-.75h6.9V1.75c0-.41.34-.75.76-.75h8.68a.75.75 0 0 1 0 1.5h-7.93v2.9c0 .42-.34.76-.75.76H3V17.9h22.5V6.16h-6.9a.75.75 0 0 1 0-1.5h7.65c.41 0 .75.33.75.75v13.25c0 .42-.34.75-.75.75z"/><path fill="#A2ACB3" d="M14.25 15.62a4.14 4.14 0 1 1 0-8.29 4.14 4.14 0 0 1 0 8.29zm0-7.07a2.94 2.94 0 1 0 0 5.88 2.94 2.94 0 0 0 0-5.88z"/><path fill="#36D0AE" d="M26.29 62.5h-24a.75.75 0 0 1-.75-.76V48.5c0-.42.34-.75.75-.75h6.9v-2.9c0-.42.34-.76.76-.76h8.68a.75.75 0 0 1 0 1.5H10.7v2.9c0 .42-.34.76-.75.76H3.04V61h22.5V49.24h-6.9a.75.75 0 0 1 0-1.5h7.65c.41 0 .75.33.75.75v13.25c0 .42-.34.75-.75.75z"/><path fill="#36D0AE" d="M14.25 58.74a4.14 4.14 0 1 1 0-8.29 4.14 4.14 0 0 1 0 8.29zm0-7.08a2.94 2.94 0 1 0 0 5.89 2.94 2.94 0 0 0 0-5.88z"/></svg>