<svg xmlns="http://www.w3.org/2000/svg" viewBox="0 0 20 20"><path fill="#a2acb3" d="M8.32 13.59c0-1.05.12-1.8.36-2.24.23-.45.75-1 1.55-1.69a9.83 9.83 0 0 0 1.35-1.59c.34-.5.5-1.06.5-1.67 0-.7-.19-1.26-.57-1.65-.38-.39-.92-.58-1.63-.58-.6 0-1.12.17-1.54.5-.42.33-.63.82-.63 1.46H5.15l-.03-.06c-.02-1.3.41-2.3 1.3-3.03s2.05-1.09 3.46-1.09c1.53 0 2.72.4 3.58 1.17a4.17 4.17 0 0 1 1.28 3.25 4.5 4.5 0 0 1-.8 2.57 9.93 9.93 0 0 1-2.03 2.17c-.41.36-.67.7-.78 1.03-.1.33-.16.81-.16 1.45H8.32m2.7 4.5H8.3v-2.55H11v2.55z"/></svg>