<svg xmlns="http://www.w3.org/2000/svg" width="20" height="40"><g fill="#c3cacf"><path d="m14.26 15.7-.05-.45-.03-.15c-.02-.1-.03-.2-.06-.28l-.04-.18-.07-.25-.06-.18a6.22 6.22 0 0 0-.08-.23l-.08-.18a5.72 5.72 0 0 0-.19-.4l-.1-.2a5.13 5.13 0 0 0-.1-.17l-.13-.19-.11-.17-.13-.18a10.47 10.47 0 0 0-.27-.32l-.14-.16-.15-.15-.16-.15-.15-.14-.17-.14-.16-.13-.18-.13a3.44 3.44 0 0 0-.17-.11l-.19-.12-.18-.1-.2-.1-.18-.1-.2-.09h-.01a6.34 6.34 0 0 0-2.37-.47 6.13 6.13 0 0 0-6.13 6.13v.7a23.74 23.74 0 0 0 12.26 0v-.7c0-.17 0-.35-.02-.52"/><path d="M17.96 14.82a5.22 5.22 0 0 0-6.58-4.59 6.78 6.78 0 0 1 3.56 5.98v.2c1.04-.1 2.06-.3 3.03-.56v-.59l-.01-.44m-6.99-7.24.05-.06.16-.24.03-.04.15-.29.04-.07.1-.25.02-.07.1-.32V6.2a3.7 3.7 0 0 0 .08-.72 3.4 3.4 0 0 0-.36-1.53l-.04-.08a4.91 4.91 0 0 0-.14-.24 3.56 3.56 0 0 0-3-1.62A3.51 3.51 0 0 0 4.6 5.47a3.51 3.51 0 0 0 3.56 3.48 3.6 3.6 0 0 0 2.82-1.37"/><path d="M15.58 5.06a3.02 3.02 0 0 0-3.81-1.72 4.25 4.25 0 0 1 .6 2.14A4.07 4.07 0 0 1 11 8.52a3.06 3.06 0 0 0 2.9.35 2.96 2.96 0 0 0 1.68-3.81"/></g><g fill="#5b646a"><path d="m14.26 35.7-.05-.45-.03-.15c-.02-.1-.03-.2-.06-.28l-.04-.18-.07-.25-.06-.18-.08-.23-.08-.18a6.57 6.57 0 0 0-.1-.21l-.09-.18-.1-.2a5.18 5.18 0 0 0-.1-.18l-.13-.19-.11-.17-.13-.18-.13-.16-.14-.17-.14-.15-.15-.15-.16-.15-.15-.14-.17-.14-.16-.13-.18-.13a4.3 4.3 0 0 0-.17-.11l-.19-.12-.18-.1-.2-.1-.18-.1-.2-.09h-.01l-.4-.15a6.13 6.13 0 0 0-8.1 5.8v.7a23.74 23.74 0 0 0 12.26 0v-.69c0-.17 0-.35-.02-.52"/><path d="M17.96 34.82a5.21 5.21 0 0 0-6.58-4.59 6.78 6.78 0 0 1 3.56 5.98v.2c1.04-.1 2.06-.3 3.03-.56v-.59l-.01-.44m-6.99-7.24.05-.06.16-.24.03-.04.15-.29.04-.07.1-.24.02-.08.1-.32v-.05a3.7 3.7 0 0 0 .08-.71 3.4 3.4 0 0 0-.36-1.54l-.04-.08a5.71 5.71 0 0 0-.14-.23 3.56 3.56 0 0 0-3-1.63 3.51 3.51 0 0 0-3.56 3.48 3.51 3.51 0 0 0 3.56 3.47 3.62 3.62 0 0 0 2.34-.87l.03-.02c.17-.15.32-.3.45-.48"/><path d="M15.58 25.06a3.02 3.02 0 0 0-3.81-1.72 4.2 4.2 0 0 1 .6 2.14A4.07 4.07 0 0 1 11 28.52a3.05 3.05 0 0 0 2.9.35 2.96 2.96 0 0 0 1.68-3.81"/></g></svg>