<svg xmlns="http://www.w3.org/2000/svg" xml:space="preserve" width="26.58" height="43.5"><path fill="#A2ACB3" d="M13.24 21.86a.74.74 0 0 1-.5-.2L2.48 12.14A6.78 6.78 0 0 1 7.25.58a6.72 6.72 0 0 1 6 3.63A6.76 6.76 0 1 1 24 12.13l-10.26 9.52a.74.74 0 0 1-.5.2zM7.25 2.08a5.27 5.27 0 0 0-3.72 8.98l9.71 9.02 9.73-9.03A5.26 5.26 0 1 0 14 6.88a.75.75 0 0 1-.57.69.75.75 0 0 1-.92-.67 5.26 5.26 0 0 0-5.25-4.82z"/><path fill="#2DB395" d="M13.24 43.13a.74.74 0 0 1-.5-.2L2.48 33.42a6.78 6.78 0 0 1 4.76-11.57 6.72 6.72 0 0 1 6 3.63A6.76 6.76 0 1 1 24 33.4l-10.26 9.53a.74.74 0 0 1-.5.2zM7.25 23.36a5.27 5.27 0 0 0-3.72 8.98l9.71 9.02 9.73-9.04A5.26 5.26 0 1 0 14 28.16a.75.75 0 0 1-.57.68.75.75 0 0 1-.92-.67 5.26 5.26 0 0 0-5.25-4.81z"/></svg>