<svg xmlns="http://www.w3.org/2000/svg" width="20" height="41"><path fill="#626060" d="M15.99 10.74v-1.5H14.4a4.45 4.45 0 0 0-.76-1.84l1.11-1.12-1.06-1.05-1.11 1.11a4.45 4.45 0 0 0-1.85-.76V4h-1.5v1.58c-.67.11-1.3.38-1.84.76L6.28 5.23 5.23 6.28 6.34 7.4a4.46 4.46 0 0 0-.76 1.85H4v1.5h1.58c.11.67.38 1.3.76 1.84L5.23 13.7l1.05 1.06 1.12-1.11c.54.38 1.17.65 1.85.76V16h1.5v-1.6c.67-.11 1.3-.38 1.84-.76l1.11 1.11 1.06-1.05-1.11-1.12c.38-.54.65-1.17.76-1.85H16m-6 1.5a2.24 2.24 0 1 1 0-4.48 2.24 2.24 0 0 1 0 4.48"/><path fill="#9f9f9f" d="M15.99 31.74v-1.5H14.4a4.45 4.45 0 0 0-.76-1.84l1.11-1.12-1.06-1.05-1.11 1.11a4.45 4.45 0 0 0-1.85-.76V25h-1.5v1.58c-.67.11-1.3.38-1.84.76l-1.12-1.11-1.05 1.05 1.11 1.12a4.46 4.46 0 0 0-.76 1.85H4v1.5h1.58c.11.67.38 1.3.76 1.84L5.23 34.7l1.05 1.06 1.12-1.11c.54.38 1.17.65 1.85.76V37h1.5v-1.58c.67-.11 1.3-.38 1.84-.76l1.11 1.11 1.06-1.06-1.11-1.1c.38-.55.65-1.18.76-1.86H16m-6 1.5a2.24 2.24 0 1 1 0-4.48 2.24 2.24 0 0 1 0 4.48"/></svg>