<svg xmlns="http://www.w3.org/2000/svg" width="24" height="48.96"><path fill="#A2ACB3" d="M21.84 0H2.16C.96 0 0 .93 0 2.06v19.67a2.24 2.24 0 0 0 3.83 1.6l4.95-4.78c.36-.36.83-.55 1.33-.55h11.73c1.2 0 2.16-.93 2.16-2.06V2.06C24 .92 23.03 0 21.84 0zm.66 15.94c0 .3-.3.56-.66.56H10.11c-.9 0-1.75.35-2.38.98l-4.95 4.78a.76.76 0 0 1-1.06 0 .73.73 0 0 1-.22-.53V2.06c0-.3.3-.56.66-.56h19.68c.37 0 .66.25.66.56v13.88z"/><path fill="#2DB395" d="M21.84 24.98H2.16A2.1 2.1 0 0 0 0 27.04v19.67a2.24 2.24 0 0 0 3.83 1.6l4.95-4.78c.35-.35.83-.55 1.33-.55h11.73c1.2 0 2.16-.93 2.16-2.06V27.04c0-1.14-.97-2.06-2.16-2.06zm.66 15.94c0 .3-.3.56-.66.56H10.11c-.9 0-1.75.35-2.38.98l-4.95 4.78a.76.76 0 0 1-1.06 0 .73.73 0 0 1-.22-.53V27.04c0-.31.3-.56.66-.56h19.68c.37 0 .66.25.66.56v13.88z"/></svg>