<svg xmlns="http://www.w3.org/2000/svg" width="11" height="9"><path fill="#a2acb3" d="M10.98 1.6c0-.88-.71-1.6-1.6-1.6H1.6C.72 0 0 .72 0 1.6v4.04c0 .89.72 1.6 1.6 1.6h7.8c.88 0 1.6-.71 1.6-1.6V1.6zm-.56 4.79-.17.17a.37.37 0 0 1-.54 0l-2.29-2.4-1.66 1.67a.4.4 0 0 1-.53 0l-1.6-1.6L1.28 6.5a.39.39 0 0 1-.53 0l-.18-.18a.37.37 0 0 1 0-.53l2.37-2.26-2.1-2.1a.38.38 0 0 1 0-.53L1 .72a.4.4 0 0 1 .54 0l3.95 3.96L9.45.72a.39.39 0 0 1 .54 0l.17.18c.07.07.1.16.1.26s-.03.2-.1.27L8.13 3.46l2.3 2.4a.37.37 0 0 1 0 .53"/></svg>