<svg xmlns="http://www.w3.org/2000/svg" width="11" height="10"><path fill="#a2acb3" d="M.05 7.35c.13-.48.45-.9.94-1.24l4.89-3.45c1-.68 1.8-.68 2.4 0 .53.71.18 1.31-.84 2.05l-4.5 3.16-.52-.73 4.46-3.15c.02 0 .33-.23.38-.28.18-.15.3-.25.17-.44-.14-.2-.44-.07-.9.26L1.67 6.95c-.31.21-.5.43-.57.67-.07.27.02.57.27.9.27.28.5.41.72.4.22 0 .5-.12.87-.36a402.6 402.6 0 0 0 5.26-3.68c.01-.02.4-.27.83-.66.31-.3.57-.56.65-.74.17-.45.12-.85-.17-1.37a1.89 1.89 0 0 0-1.17-.99c-.5-.13-1.1.04-1.81.51L1.22 5.4l-.66-.82L5.9.79A3.54 3.54 0 0 1 8.28.05c.76.08 1.42.48 1.98 1.2.66.9.81 1.77.44 2.66-.23.5-.65.99-1.29 1.44l-3.14 2.2-2.66 1.88c-.6.42-1.2.6-1.8.52a2 2 0 0 1-1.3-.82 2.08 2.08 0 0 1-.46-1.78"/></svg>