<svg xmlns="http://www.w3.org/2000/svg" width="20" height="20"><g fill="#a2acb3"><path d="M10.036 4.932C3.303 4.932 2.072 10 2.072 10s1.231 5.068 7.964 5.068C16.771 15.068 18 10 18 10s-1.229-5.068-7.964-5.068zm0 8.906c-2.12 0-3.84-1.717-3.84-3.838 0-2.12 1.72-3.839 3.84-3.839 2.122 0 3.838 1.719 3.838 3.839 0 2.121-1.716 3.838-3.838 3.838z"/><path d="M11.363 10.118c-.796 0-1.444-.648-1.444-1.446 0-.604.368-1.118.892-1.336a2.8007 2.8007 0 0 0-.774-.111c-1.532 0-2.775 1.244-2.775 2.775s1.244 2.775 2.775 2.775c1.532 0 2.774-1.244 2.774-2.775 0-.269-.04-.529-.109-.774-.219.523-.734.892-1.339.892z"/></g></svg>