<svg xmlns="http://www.w3.org/2000/svg" width="64" height="64"><path fill="#A2ACB3" d="M60.84 1H41.16C39.96 1 39 1.93 39 3.06v19.67a2.24 2.24 0 0 0 3.83 1.6l4.95-4.78c.35-.35.83-.55 1.33-.55h11.73c1.2 0 2.16-.93 2.16-2.06V3.06C63 1.92 62.03 1 60.84 1zm.66 15.94c0 .3-.3.56-.66.56H49.1c-.9 0-1.74.35-2.37.98l-4.95 4.78a.76.76 0 0 1-1.06 0 .74.74 0 0 1-.22-.53V3.06c0-.3.3-.56.66-.56h19.68c.36 0 .66.25.66.56v13.88zm-47.76 6.33a.74.74 0 0 1-.5-.2L2.98 13.56A6.78 6.78 0 0 1 7.76 2a6.72 6.72 0 0 1 5.98 3.62 6.76 6.76 0 1 1 10.77 7.92l-10.26 9.53a.74.74 0 0 1-.5.2zM7.75 3.5a5.27 5.27 0 0 0-3.72 8.98l9.71 9.02 9.73-9.04A5.26 5.26 0 1 0 14.5 8.3a.76.76 0 0 1-.57.68.75.75 0 0 1-.92-.67A5.26 5.26 0 0 0 7.75 3.5z"/><path fill="#36D0AE" d="M60.84 38H41.16c-1.2 0-2.16.93-2.16 2.06v19.67a2.24 2.24 0 0 0 3.83 1.6l4.95-4.78c.35-.35.83-.55 1.33-.55h11.73A2.1 2.1 0 0 0 63 53.94V40.06c0-1.13-.97-2.06-2.16-2.06zm.66 15.94c0 .3-.3.56-.66.56H49.1c-.9 0-1.74.35-2.37.98l-4.95 4.78a.76.76 0 0 1-1.06 0 .74.74 0 0 1-.22-.53V40.06c0-.3.3-.56.66-.56h19.68c.36 0 .66.25.66.56v13.88zm-47.76 6.33a.74.74 0 0 1-.5-.2L2.98 50.56A6.78 6.78 0 0 1 7.76 39a6.72 6.72 0 0 1 5.98 3.62 6.76 6.76 0 1 1 10.77 7.92l-10.26 9.53a.74.74 0 0 1-.5.2zM7.75 40.5a5.27 5.27 0 0 0-3.72 8.98l9.71 9.02 9.73-9.04a5.26 5.26 0 1 0-8.98-4.16.76.76 0 0 1-.57.68.75.75 0 0 1-.92-.67 5.26 5.26 0 0 0-5.25-4.81z"/></svg>